<svg xmlns="http://www.w3.org/2000/svg" xmlns:xlink="http://www.w3.org/1999/xlink" aria-hidden="true" role="img" class="iconify iconify--logos" width="35.93" height="32" preserveAspectRatio="xMidYMid meet" viewBox="216.3021596846712 205.272078100462 117.39044099660282 116.38935399350396"><path fill="#504AE2" d="M216.30216,263.46676c0,-32.13996 26.05462,-58.19468 58.19468,-58.19468c13.55401,0 26.02581,4.63353 35.91789,12.40353c-7.53331,-4.19455 -16.20904,-6.58406 -25.44285,-6.58406c-28.92603,0 -52.37527,23.44918 -52.37527,52.37521c0,28.92603 23.44924,52.37521 52.37527,52.37521c9.23381,0 17.90954,-2.38957 25.44285,-6.584c-9.89209,7.76975 -22.36389,12.40346 -35.91789,12.40346c-32.14006,0 -58.19468,-26.05465 -58.19468,-58.19468zM333.6926,263.46676c0,25.71203 -20.84428,46.55574 -46.55599,46.55574c-10.84329,0 -20.82072,-3.70701 -28.73413,-9.92282c6.02642,3.35558 12.96696,5.26725 20.35409,5.26725c23.14076,0 41.90017,-18.75934 41.90017,-41.90017c0,-23.14057 -18.75941,-41.90017 -41.90017,-41.90017c-7.38713,0 -14.32767,1.91148 -20.35409,5.26712c7.91341,-6.21562 17.89083,-9.9227 28.73413,-9.9227c25.71172,0 46.55599,20.84365 46.55599,46.55574zM271.55845,237.01463h6.87755l22.14421,52.90425h-11.48778l-4.76138,-11.48778h-18.59207l-4.76138,11.48778h-11.56336zM280.93006,269.81527l-5.89505,-14.51088l-5.97062,14.51088z"></path></svg>
